<svg id="visual" viewBox="0 0 900 600" width="900" height="600" xmlns="http://www.w3.org/2000/svg" xmlns:xlink="http://www.w3.org/1999/xlink" version="1.1"><rect x="0" y="0" width="900" height="600" fill="#0b3814"></rect><path d="M545 600L549 600L549 540L485 540L485 480L523 480L523 420L599 420L599 360L575 360L575 300L446 300L446 240L459 240L459 180L575 180L575 120L458 120L458 60L443 60L443 0L900 0L900 60L900 60L900 120L900 120L900 180L900 180L900 240L900 240L900 300L900 300L900 360L900 360L900 420L900 420L900 480L900 480L900 540L900 540L900 600L900 600Z" fill="#20e526"></path><path d="M603 600L633 600L633 540L705 540L705 480L597 480L597 420L671 420L671 360L642 360L642 300L594 300L594 240L659 240L659 180L714 180L714 120L686 120L686 60L642 60L642 0L900 0L900 60L900 60L900 120L900 120L900 180L900 180L900 240L900 240L900 300L900 300L900 360L900 360L900 420L900 420L900 480L900 480L900 540L900 540L900 600L900 600Z" fill="#0db92a"></path><path d="M785 600L758 600L758 540L770 540L770 480L797 480L797 420L770 420L770 360L822 360L822 300L729 300L729 240L809 240L809 180L710 180L710 120L766 120L766 60L787 60L787 0L900 0L900 60L900 60L900 120L900 120L900 180L900 180L900 240L900 240L900 300L900 300L900 360L900 360L900 420L900 420L900 480L900 480L900 540L900 540L900 600L900 600Z" fill="#078f28"></path></svg>