<svg id="visual" viewBox="0 0 900 600" width="900" height="600" xmlns="http://www.w3.org/2000/svg" xmlns:xlink="http://www.w3.org/1999/xlink" version="1.1"><rect x="0" y="0" width="900" height="600" fill="#111111"></rect><path d="M538 600L547.2 595.2C556.3 590.3 574.7 580.7 548.2 571.2C521.7 561.7 450.3 552.3 483 542.8C515.7 533.3 652.3 523.7 691.5 514.2C730.7 504.7 672.3 495.3 631.7 485.8C591 476.3 568 466.7 535.2 457.2C502.3 447.7 459.7 438.3 452 428.8C444.3 419.3 471.7 409.7 518.7 400C565.7 390.3 632.3 380.7 642.5 371.2C652.7 361.7 606.3 352.3 614.2 342.8C622 333.3 684 323.7 658 314.2C632 304.7 518 295.3 525.7 285.8C533.3 276.3 662.7 266.7 717.5 257.2C772.3 247.7 752.7 238.3 740 228.8C727.3 219.3 721.7 209.7 671 200C620.3 190.3 524.7 180.7 531.7 171.2C538.7 161.7 648.3 152.3 664 142.8C679.7 133.3 601.3 123.7 579.2 114.2C557 104.7 591 95.3 606.8 85.8C622.7 76.3 620.3 66.7 643.2 57.2C666 47.7 714 38.3 681.7 28.8C649.3 19.3 536.7 9.7 480.3 4.8L424 0L900 0L900 4.8C900 9.7 900 19.3 900 28.8C900 38.3 900 47.7 900 57.2C900 66.7 900 76.3 900 85.8C900 95.3 900 104.7 900 114.2C900 123.7 900 133.3 900 142.8C900 152.3 900 161.7 900 171.2C900 180.7 900 190.3 900 200C900 209.7 900 219.3 900 228.8C900 238.3 900 247.7 900 257.2C900 266.7 900 276.3 900 285.8C900 295.3 900 304.7 900 314.2C900 323.7 900 333.3 900 342.8C900 352.3 900 361.7 900 371.2C900 380.7 900 390.3 900 400C900 409.7 900 419.3 900 428.8C900 438.3 900 447.7 900 457.2C900 466.7 900 476.3 900 485.8C900 495.3 900 504.7 900 514.2C900 523.7 900 533.3 900 542.8C900 552.3 900 561.7 900 571.2C900 580.7 900 590.3 900 595.2L900 600Z" fill="#000000" stroke-linecap="round" stroke-linejoin="miter"></path></svg>